<svg width="221" height="36" viewBox="0 0 221 36" fill="none" xmlns="http://www.w3.org/2000/svg">
<path d="M8.55046 29.1743C6.91131 29.1743 5.30887 28.9786 3.74312 28.5872C2.17737 28.1713 0.929664 27.6575 0 27.0459L1.90826 22.9358C2.78899 23.4985 3.85321 23.9633 5.10092 24.3303C6.34862 24.6728 7.57187 24.844 8.77064 24.844C11.1927 24.844 12.4037 24.2446 12.4037 23.0459C12.4037 22.4832 12.0734 22.0795 11.4128 21.8349C10.7523 21.5902 9.737 21.3823 8.36697 21.211C6.75229 20.9664 5.41896 20.685 4.36697 20.367C3.31499 20.0489 2.39755 19.4862 1.61468 18.6789C0.856269 17.8716 0.477064 16.7217 0.477064 15.2294C0.477064 13.9817 0.831804 12.8807 1.54128 11.9266C2.27523 10.948 3.32722 10.1896 4.69725 9.65138C6.09174 9.11315 7.73089 8.84404 9.61468 8.84404C11.0092 8.84404 12.3914 9.00306 13.7615 9.3211C15.156 9.61468 16.3058 10.0306 17.211 10.5688L15.3028 14.6422C13.5658 13.6636 11.6697 13.1743 9.61468 13.1743C8.39144 13.1743 7.47401 13.3456 6.86239 13.6881C6.25076 14.0306 5.94495 14.4709 5.94495 15.0092C5.94495 15.6208 6.27523 16.0489 6.93578 16.2936C7.59633 16.5382 8.64832 16.7706 10.0917 16.9908C11.7064 17.2599 13.0275 17.5535 14.055 17.8716C15.0826 18.1651 15.9755 18.7156 16.7339 19.5229C17.4924 20.3303 17.8716 21.4557 17.8716 22.8991C17.8716 24.1223 17.5046 25.211 16.7706 26.1651C16.0367 27.1193 14.9602 27.8654 13.5413 28.4037C12.1468 28.9174 10.4832 29.1743 8.55046 29.1743Z" fill="#424242"/>
<path d="M25.5138 8.84404C28.5719 8.84404 30.9205 9.57798 32.5596 11.0459C34.1988 12.4893 35.0183 14.6789 35.0183 17.6147V28.8807H29.6606V26.422C28.5841 28.2569 26.578 29.1743 23.6422 29.1743C22.1254 29.1743 20.8043 28.9174 19.6789 28.4037C18.578 27.8899 17.7339 27.1804 17.1468 26.2752C16.5596 25.37 16.2661 24.3425 16.2661 23.1927C16.2661 21.3578 16.9511 19.9144 18.3211 18.8624C19.7156 17.8104 21.8563 17.2844 24.7431 17.2844H29.2936C29.2936 16.0367 28.9144 15.0826 28.156 14.422C27.3976 13.737 26.2599 13.3945 24.7431 13.3945C23.6911 13.3945 22.6514 13.5658 21.6239 13.9083C20.6208 14.2263 19.7645 14.6667 19.055 15.2294L17 11.2294C18.0765 10.4709 19.3609 9.88379 20.8532 9.46789C22.37 9.05199 23.9235 8.84404 25.5138 8.84404ZM25.0734 25.3211C26.052 25.3211 26.9205 25.1009 27.6789 24.6605C28.4373 24.1957 28.9755 23.5229 29.2936 22.6422V20.6239H25.367C23.0183 20.6239 21.844 21.3945 21.844 22.9358C21.844 23.6697 22.1254 24.2569 22.6881 24.6972C23.2752 25.1131 24.0703 25.3211 25.0734 25.3211Z" fill="#424242"/>
<path d="M56.6714 1.65138V28.8807H51.2036V26.6055C49.7846 28.318 47.7295 29.1743 45.0384 29.1743C43.1791 29.1743 41.491 28.7584 39.9742 27.9266C38.4818 27.0948 37.3075 25.9083 36.4513 24.367C35.595 22.8257 35.1669 21.0398 35.1669 19.0092C35.1669 16.9786 35.595 15.1927 36.4513 13.6514C37.3075 12.1101 38.4818 10.9235 39.9742 10.0917C41.491 9.25994 43.1791 8.84404 45.0384 8.84404C47.5583 8.84404 49.5277 9.63914 50.9467 11.2294V1.65138H56.6714ZM46.0292 24.4771C47.4727 24.4771 48.6714 23.9878 49.6256 23.0092C50.5797 22.0061 51.0568 20.6728 51.0568 19.0092C51.0568 17.3456 50.5797 16.0245 49.6256 15.0459C48.6714 14.0428 47.4727 13.5413 46.0292 13.5413C44.5614 13.5413 43.3503 14.0428 42.3962 15.0459C41.4421 16.0245 40.965 17.3456 40.965 19.0092C40.965 20.6728 41.4421 22.0061 42.3962 23.0092C43.3503 23.9878 44.5614 24.4771 46.0292 24.4771Z" fill="#424242"/>
<path d="M87.4527 24.4771V28.8807H69.838V25.4312L79.8931 13.5413H70.0949V9.13761H87.1224V12.5872L77.0674 24.4771H87.4527Z" fill="#424242"/>
<path d="M106.357 19.0826C106.357 19.156 106.32 19.6697 106.247 20.6239H91.3108C91.5799 21.8471 92.216 22.8135 93.219 23.5229C94.2221 24.2324 95.4698 24.5872 96.9622 24.5872C97.9897 24.5872 98.8949 24.4404 99.6778 24.1468C100.485 23.8287 101.231 23.3394 101.916 22.6789L104.962 25.9816C103.103 28.1101 100.387 29.1743 96.8154 29.1743C94.5891 29.1743 92.6197 28.7462 90.9071 27.8899C89.1946 27.0092 87.8735 25.7982 86.9438 24.2569C86.0141 22.7156 85.5493 20.9664 85.5493 19.0092C85.5493 17.0765 86.0019 15.3395 86.9071 13.7982C87.8368 12.2324 89.0967 11.0214 90.6869 10.1651C92.3016 9.2844 94.0998 8.84404 96.0814 8.84404C98.0141 8.84404 99.7634 9.25994 101.329 10.0917C102.895 10.9235 104.118 12.1223 104.999 13.6881C105.904 15.2294 106.357 17.0275 106.357 19.0826ZM96.1181 13.1743C94.8215 13.1743 93.7328 13.5413 92.8521 14.2752C91.9713 15.0092 91.4331 16.0122 91.2374 17.2844H100.962C100.766 16.0367 100.228 15.0459 99.3475 14.3119C98.4667 13.5535 97.3903 13.1743 96.1181 13.1743Z" fill="#424242"/>
<path d="M117.985 8.84404C119.819 8.84404 121.483 9.27217 122.975 10.1284C124.492 10.9602 125.679 12.1468 126.535 13.6881C127.391 15.2049 127.819 16.9786 127.819 19.0092C127.819 21.0398 127.391 22.8257 126.535 24.367C125.679 25.8838 124.492 27.0703 122.975 27.9266C121.483 28.7584 119.819 29.1743 117.985 29.1743C115.465 29.1743 113.483 28.3792 112.04 26.789V36H106.315V9.13761H111.783V11.4128C113.202 9.70031 115.269 8.84404 117.985 8.84404ZM116.994 24.4771C118.462 24.4771 119.66 23.9878 120.59 23.0092C121.544 22.0061 122.021 20.6728 122.021 19.0092C122.021 17.3456 121.544 16.0245 120.59 15.0459C119.66 14.0428 118.462 13.5413 116.994 13.5413C115.526 13.5413 114.315 14.0428 113.361 15.0459C112.431 16.0245 111.966 17.3456 111.966 19.0092C111.966 20.6728 112.431 22.0061 113.361 23.0092C114.315 23.9878 115.526 24.4771 116.994 24.4771Z" fill="#424242"/>
<path d="M139.468 8.84404C141.303 8.84404 142.967 9.27217 144.459 10.1284C145.976 10.9602 147.162 12.1468 148.019 13.6881C148.875 15.2049 149.303 16.9786 149.303 19.0092C149.303 21.0398 148.875 22.8257 148.019 24.367C147.162 25.8838 145.976 27.0703 144.459 27.9266C142.967 28.7584 141.303 29.1743 139.468 29.1743C136.948 29.1743 134.967 28.3792 133.523 26.789V36H127.798V9.13761H133.266V11.4128C134.685 9.70031 136.753 8.84404 139.468 8.84404ZM138.477 24.4771C139.945 24.4771 141.144 23.9878 142.074 23.0092C143.028 22.0061 143.505 20.6728 143.505 19.0092C143.505 17.3456 143.028 16.0245 142.074 15.0459C141.144 14.0428 139.945 13.5413 138.477 13.5413C137.009 13.5413 135.798 14.0428 134.844 15.0459C133.915 16.0245 133.45 17.3456 133.45 19.0092C133.45 20.6728 133.915 22.0061 134.844 23.0092C135.798 23.9878 137.009 24.4771 138.477 24.4771Z" fill="#424242"/>
<path d="M168.622 19.0826C168.622 19.156 168.585 19.6697 168.511 20.6239H153.576C153.845 21.8471 154.481 22.8135 155.484 23.5229C156.487 24.2324 157.735 24.5872 159.227 24.5872C160.255 24.5872 161.16 24.4404 161.943 24.1468C162.75 23.8287 163.496 23.3394 164.181 22.6789L167.227 25.9816C165.368 28.1101 162.652 29.1743 159.08 29.1743C156.854 29.1743 154.885 28.7462 153.172 27.8899C151.459 27.0092 150.138 25.7982 149.209 24.2569C148.279 22.7156 147.814 20.9664 147.814 19.0092C147.814 17.0765 148.267 15.3395 149.172 13.7982C150.102 12.2324 151.362 11.0214 152.952 10.1651C154.567 9.2844 156.365 8.84404 158.346 8.84404C160.279 8.84404 162.028 9.25994 163.594 10.0917C165.16 10.9235 166.383 12.1223 167.264 13.6881C168.169 15.2294 168.622 17.0275 168.622 19.0826ZM158.383 13.1743C157.086 13.1743 155.998 13.5413 155.117 14.2752C154.236 15.0092 153.698 16.0122 153.502 17.2844H163.227C163.031 16.0367 162.493 15.0459 161.612 14.3119C160.732 13.5535 159.655 13.1743 158.383 13.1743Z" fill="#424242"/>
<path d="M168.58 1.65138H174.304V28.8807H168.58V1.65138Z" fill="#424242"/>
<path d="M175.764 9.13761H181.489V28.8807H175.764V9.13761ZM178.627 6.38532C177.575 6.38532 176.718 6.07951 176.058 5.46789C175.397 4.85627 175.067 4.09786 175.067 3.19266C175.067 2.28746 175.397 1.52905 176.058 0.917432C176.718 0.305811 177.575 0 178.627 0C179.679 0 180.535 0.293579 181.196 0.880736C181.856 1.46789 182.186 2.20184 182.186 3.08257C182.186 4.0367 181.856 4.83181 181.196 5.46789C180.535 6.07951 179.679 6.38532 178.627 6.38532Z" fill="#424242"/>
<path d="M194.949 8.84404C197.395 8.84404 199.365 9.57798 200.857 11.0459C202.374 12.5138 203.132 14.6911 203.132 17.578V28.8807H197.408V18.4587C197.408 16.893 197.065 15.7309 196.38 14.9725C195.695 14.1896 194.704 13.7982 193.408 13.7982C191.964 13.7982 190.814 14.2508 189.958 15.156C189.102 16.0367 188.674 17.3578 188.674 19.1193V28.8807H182.949V9.13761H188.417V11.4495C189.175 10.6177 190.117 9.98165 191.243 9.54129C192.368 9.07645 193.603 8.84404 194.949 8.84404Z" fill="#424242"/>
<path d="M211.111 29.1743C209.472 29.1743 207.869 28.9786 206.303 28.5872C204.738 28.1713 203.49 27.6575 202.56 27.0459L204.468 22.9358C205.349 23.4985 206.413 23.9633 207.661 24.3303C208.909 24.6728 210.132 24.844 211.331 24.844C213.753 24.844 214.964 24.2446 214.964 23.0459C214.964 22.4832 214.634 22.0795 213.973 21.8349C213.312 21.5902 212.297 21.3823 210.927 21.211C209.312 20.9664 207.979 20.685 206.927 20.367C205.875 20.0489 204.958 19.4862 204.175 18.6789C203.416 17.8716 203.037 16.7217 203.037 15.2294C203.037 13.9817 203.392 12.8807 204.102 11.9266C204.835 10.948 205.887 10.1896 207.257 9.65138C208.652 9.11315 210.291 8.84404 212.175 8.84404C213.569 8.84404 214.952 9.00306 216.322 9.3211C217.716 9.61468 218.866 10.0306 219.771 10.5688L217.863 14.6422C216.126 13.6636 214.23 13.1743 212.175 13.1743C210.952 13.1743 210.034 13.3456 209.423 13.6881C208.811 14.0306 208.505 14.4709 208.505 15.0092C208.505 15.6208 208.835 16.0489 209.496 16.2936C210.157 16.5382 211.209 16.7706 212.652 16.9908C214.267 17.2599 215.588 17.5535 216.615 17.8716C217.643 18.1651 218.536 18.7156 219.294 19.5229C220.053 20.3303 220.432 21.4557 220.432 22.8991C220.432 24.1223 220.065 25.211 219.331 26.1651C218.597 27.1193 217.52 27.8654 216.102 28.4037C214.707 28.9174 213.043 29.1743 211.111 29.1743Z" fill="#424242"/>
</svg>
