<svg width="59" height="7" viewBox="0 0 59 7" fill="none" xmlns="http://www.w3.org/2000/svg">
<path d="M3.344 6.048C2.78933 6.048 2.288 5.92533 1.84 5.68C1.39733 5.43467 1.048 5.096 0.792 4.664C0.541333 4.22667 0.416 3.73867 0.416 3.2C0.416 2.66133 0.541333 2.176 0.792 1.744C1.048 1.30667 1.4 0.965333 1.848 0.72C2.296 0.474666 2.79733 0.352 3.352 0.352C3.768 0.352 4.152 0.421333 4.504 0.56C4.856 0.698666 5.15467 0.901333 5.4 1.168L5.024 1.544C4.58667 1.10133 4.03467 0.88 3.368 0.88C2.92533 0.88 2.52267 0.981333 2.16 1.184C1.79733 1.38667 1.512 1.664 1.304 2.016C1.10133 2.368 1 2.76267 1 3.2C1 3.63733 1.10133 4.032 1.304 4.384C1.512 4.736 1.79733 5.01333 2.16 5.216C2.52267 5.41867 2.92533 5.52 3.368 5.52C4.04 5.52 4.592 5.296 5.024 4.848L5.4 5.224C5.15467 5.49067 4.85333 5.696 4.496 5.84C4.144 5.97867 3.76 6.048 3.344 6.048ZM6.542 0.0639997H7.11V6H6.542V0.0639997ZM10.4104 6.04C10.0051 6.04 9.63977 5.94933 9.31444 5.768C8.9891 5.58133 8.7331 5.32533 8.54644 5C8.35977 4.67467 8.26644 4.30667 8.26644 3.896C8.26644 3.48533 8.35977 3.11733 8.54644 2.792C8.7331 2.46667 8.9891 2.21333 9.31444 2.032C9.63977 1.85067 10.0051 1.76 10.4104 1.76C10.8158 1.76 11.1811 1.85067 11.5064 2.032C11.8318 2.21333 12.0851 2.46667 12.2664 2.792C12.4531 3.11733 12.5464 3.48533 12.5464 3.896C12.5464 4.30667 12.4531 4.67467 12.2664 5C12.0851 5.32533 11.8318 5.58133 11.5064 5.768C11.1811 5.94933 10.8158 6.04 10.4104 6.04ZM10.4104 5.536C10.7091 5.536 10.9758 5.46933 11.2104 5.336C11.4504 5.19733 11.6371 5.00267 11.7704 4.752C11.9038 4.50133 11.9704 4.216 11.9704 3.896C11.9704 3.576 11.9038 3.29067 11.7704 3.04C11.6371 2.78933 11.4504 2.59733 11.2104 2.464C10.9758 2.32533 10.7091 2.256 10.4104 2.256C10.1118 2.256 9.84244 2.32533 9.60244 2.464C9.36777 2.59733 9.1811 2.78933 9.04244 3.04C8.9091 3.29067 8.84244 3.576 8.84244 3.896C8.84244 4.216 8.9091 4.50133 9.04244 4.752C9.1811 5.00267 9.36777 5.19733 9.60244 5.336C9.84244 5.46933 10.1118 5.536 10.4104 5.536ZM14.8341 6.04C14.4927 6.04 14.1647 5.992 13.8501 5.896C13.5407 5.79467 13.2981 5.66933 13.1221 5.52L13.3781 5.072C13.5541 5.21067 13.7754 5.32533 14.0421 5.416C14.3087 5.50133 14.5861 5.544 14.8741 5.544C15.2581 5.544 15.5407 5.48533 15.7221 5.368C15.9087 5.24533 16.0021 5.07467 16.0021 4.856C16.0021 4.70133 15.9514 4.58133 15.8501 4.496C15.7487 4.40533 15.6207 4.33867 15.4661 4.296C15.3114 4.248 15.1061 4.20267 14.8501 4.16C14.5087 4.096 14.2341 4.032 14.0261 3.968C13.8181 3.89867 13.6394 3.784 13.4901 3.624C13.3461 3.464 13.2741 3.24267 13.2741 2.96C13.2741 2.608 13.4207 2.32 13.7141 2.096C14.0074 1.872 14.4154 1.76 14.9381 1.76C15.2101 1.76 15.4821 1.79733 15.7541 1.872C16.0261 1.94133 16.2501 2.03467 16.4261 2.152L16.1781 2.608C15.8314 2.368 15.4181 2.248 14.9381 2.248C14.5754 2.248 14.3007 2.312 14.1141 2.44C13.9327 2.568 13.8421 2.736 13.8421 2.944C13.8421 3.104 13.8927 3.232 13.9941 3.328C14.1007 3.424 14.2314 3.496 14.3861 3.544C14.5407 3.58667 14.7541 3.632 15.0261 3.68C15.3621 3.744 15.6314 3.808 15.8341 3.872C16.0367 3.936 16.2101 4.04533 16.3541 4.2C16.4981 4.35467 16.5701 4.568 16.5701 4.84C16.5701 5.208 16.4154 5.50133 16.1061 5.72C15.8021 5.93333 15.3781 6.04 14.8341 6.04ZM21.2841 4.072H17.7641C17.7961 4.50933 17.9641 4.864 18.2681 5.136C18.5721 5.40267 18.9561 5.536 19.4201 5.536C19.6815 5.536 19.9215 5.49067 20.1401 5.4C20.3588 5.304 20.5481 5.16533 20.7081 4.984L21.0281 5.352C20.8415 5.576 20.6068 5.74667 20.3241 5.864C20.0468 5.98133 19.7401 6.04 19.4041 6.04C18.9721 6.04 18.5881 5.94933 18.2521 5.768C17.9215 5.58133 17.6628 5.32533 17.4761 5C17.2895 4.67467 17.1961 4.30667 17.1961 3.896C17.1961 3.48533 17.2841 3.11733 17.4601 2.792C17.6415 2.46667 17.8868 2.21333 18.1961 2.032C18.5108 1.85067 18.8628 1.76 19.2521 1.76C19.6415 1.76 19.9908 1.85067 20.3001 2.032C20.6095 2.21333 20.8521 2.46667 21.0281 2.792C21.2041 3.112 21.2921 3.48 21.2921 3.896L21.2841 4.072ZM19.2521 2.248C18.8468 2.248 18.5055 2.37867 18.2281 2.64C17.9561 2.896 17.8015 3.232 17.7641 3.648H20.7481C20.7108 3.232 20.5535 2.896 20.2761 2.64C20.0041 2.37867 19.6628 2.248 19.2521 2.248ZM26.758 5.744C26.6513 5.84 26.518 5.91467 26.358 5.968C26.2033 6.016 26.0407 6.04 25.87 6.04C25.4753 6.04 25.1713 5.93333 24.958 5.72C24.7447 5.50667 24.638 5.20533 24.638 4.816V2.272H23.886V1.792H24.638V0.872H25.206V1.792H26.486V2.272H25.206V4.784C25.206 5.03467 25.2673 5.22667 25.39 5.36C25.518 5.488 25.6993 5.552 25.934 5.552C26.0513 5.552 26.1633 5.53333 26.27 5.496C26.382 5.45867 26.478 5.40533 26.558 5.336L26.758 5.744ZM29.936 1.76C30.464 1.76 30.8827 1.91467 31.192 2.224C31.5067 2.528 31.664 2.97333 31.664 3.56V6H31.096V3.616C31.096 3.17867 30.9867 2.84533 30.768 2.616C30.5493 2.38667 30.2373 2.272 29.832 2.272C29.3787 2.272 29.0187 2.408 28.752 2.68C28.4907 2.94667 28.36 3.31733 28.36 3.792V6H27.792V0.0639997H28.36V2.528C28.5147 2.28267 28.728 2.09333 29 1.96C29.272 1.82667 29.584 1.76 29.936 1.76ZM36.8857 4.072H33.3657C33.3977 4.50933 33.5657 4.864 33.8697 5.136C34.1737 5.40267 34.5577 5.536 35.0217 5.536C35.283 5.536 35.523 5.49067 35.7417 5.4C35.9604 5.304 36.1497 5.16533 36.3097 4.984L36.6297 5.352C36.443 5.576 36.2084 5.74667 35.9257 5.864C35.6484 5.98133 35.3417 6.04 35.0057 6.04C34.5737 6.04 34.1897 5.94933 33.8537 5.768C33.523 5.58133 33.2644 5.32533 33.0777 5C32.891 4.67467 32.7977 4.30667 32.7977 3.896C32.7977 3.48533 32.8857 3.11733 33.0617 2.792C33.243 2.46667 33.4884 2.21333 33.7977 2.032C34.1124 1.85067 34.4644 1.76 34.8537 1.76C35.243 1.76 35.5924 1.85067 35.9017 2.032C36.211 2.21333 36.4537 2.46667 36.6297 2.792C36.8057 3.112 36.8937 3.48 36.8937 3.896L36.8857 4.072ZM34.8537 2.248C34.4484 2.248 34.107 2.37867 33.8297 2.64C33.5577 2.896 33.403 3.232 33.3657 3.648H36.3497C36.3124 3.232 36.155 2.896 35.8777 2.64C35.6057 2.37867 35.2644 2.248 34.8537 2.248ZM40.2636 0.4H42.5436C43.1356 0.4 43.6582 0.52 44.1116 0.76C44.5649 0.994667 44.9169 1.32533 45.1676 1.752C45.4182 2.17333 45.5436 2.656 45.5436 3.2C45.5436 3.744 45.4182 4.22933 45.1676 4.656C44.9169 5.07733 44.5649 5.408 44.1116 5.648C43.6582 5.88267 43.1356 6 42.5436 6H40.2636V0.4ZM42.5116 5.488C43.0022 5.488 43.4316 5.392 43.7996 5.2C44.1676 5.00267 44.4529 4.73333 44.6556 4.392C44.8582 4.04533 44.9596 3.648 44.9596 3.2C44.9596 2.752 44.8582 2.35733 44.6556 2.016C44.4529 1.66933 44.1676 1.4 43.7996 1.208C43.4316 1.01067 43.0022 0.912 42.5116 0.912H40.8556V5.488H42.5116ZM48.4729 6.04C48.0676 6.04 47.7023 5.94933 47.3769 5.768C47.0516 5.58133 46.7956 5.32533 46.6089 5C46.4223 4.67467 46.3289 4.30667 46.3289 3.896C46.3289 3.48533 46.4223 3.11733 46.6089 2.792C46.7956 2.46667 47.0516 2.21333 47.3769 2.032C47.7023 1.85067 48.0676 1.76 48.4729 1.76C48.8783 1.76 49.2436 1.85067 49.5689 2.032C49.8943 2.21333 50.1476 2.46667 50.3289 2.792C50.5156 3.11733 50.6089 3.48533 50.6089 3.896C50.6089 4.30667 50.5156 4.67467 50.3289 5C50.1476 5.32533 49.8943 5.58133 49.5689 5.768C49.2436 5.94933 48.8783 6.04 48.4729 6.04ZM48.4729 5.536C48.7716 5.536 49.0383 5.46933 49.2729 5.336C49.5129 5.19733 49.6996 5.00267 49.8329 4.752C49.9663 4.50133 50.0329 4.216 50.0329 3.896C50.0329 3.576 49.9663 3.29067 49.8329 3.04C49.6996 2.78933 49.5129 2.59733 49.2729 2.464C49.0383 2.32533 48.7716 2.256 48.4729 2.256C48.1743 2.256 47.9049 2.32533 47.6649 2.464C47.4303 2.59733 47.2436 2.78933 47.1049 3.04C46.9716 3.29067 46.9049 3.576 46.9049 3.896C46.9049 4.216 46.9716 4.50133 47.1049 4.752C47.2436 5.00267 47.4303 5.19733 47.6649 5.336C47.9049 5.46933 48.1743 5.536 48.4729 5.536ZM53.4886 6.04C53.0832 6.04 52.7179 5.94933 52.3926 5.768C52.0672 5.58133 51.8112 5.32533 51.6246 5C51.4379 4.67467 51.3446 4.30667 51.3446 3.896C51.3446 3.48533 51.4379 3.11733 51.6246 2.792C51.8112 2.46667 52.0672 2.21333 52.3926 2.032C52.7179 1.85067 53.0832 1.76 53.4886 1.76C53.8939 1.76 54.2592 1.85067 54.5846 2.032C54.9099 2.21333 55.1632 2.46667 55.3446 2.792C55.5312 3.11733 55.6246 3.48533 55.6246 3.896C55.6246 4.30667 55.5312 4.67467 55.3446 5C55.1632 5.32533 54.9099 5.58133 54.5846 5.768C54.2592 5.94933 53.8939 6.04 53.4886 6.04ZM53.4886 5.536C53.7872 5.536 54.0539 5.46933 54.2886 5.336C54.5286 5.19733 54.7152 5.00267 54.8486 4.752C54.9819 4.50133 55.0486 4.216 55.0486 3.896C55.0486 3.576 54.9819 3.29067 54.8486 3.04C54.7152 2.78933 54.5286 2.59733 54.2886 2.464C54.0539 2.32533 53.7872 2.256 53.4886 2.256C53.1899 2.256 52.9206 2.32533 52.6806 2.464C52.4459 2.59733 52.2592 2.78933 52.1206 3.04C51.9872 3.29067 51.9206 3.576 51.9206 3.896C51.9206 4.216 51.9872 4.50133 52.1206 4.752C52.2592 5.00267 52.4459 5.19733 52.6806 5.336C52.9206 5.46933 53.1899 5.536 53.4886 5.536ZM57.3282 2.616C57.4615 2.33333 57.6589 2.12 57.9202 1.976C58.1869 1.832 58.5149 1.76 58.9042 1.76V2.312L58.7682 2.304C58.3255 2.304 57.9789 2.44 57.7282 2.712C57.4775 2.984 57.3522 3.36533 57.3522 3.856V6H56.7842V1.792H57.3282V2.616Z" fill="white"/>
</svg>
