<svg width="301" height="35" viewBox="0 0 301 35" fill="none" xmlns="http://www.w3.org/2000/svg">
<path d="M17.6596 0L0 34.9448C0.774971 34.9448 1.4711 34.9763 2.12861 34.9642C2.73802 34.9529 3.31747 34.9933 3.87328 34.9731C7.12847 35.0541 8.04219 34.6492 8.64057 31.9424C8.92359 30.6623 9.78292 30.323 11.0688 30.3587C12.0794 30.387 13.0917 30.417 14.1048 30.4396L11.9975 24.673L17.9008 13.211L23.3721 24.4244L21.3357 30.3838C21.6054 30.3681 21.8747 30.3506 22.1438 30.3311C24.7581 30.1425 26.3317 30.9254 27.0656 33.5237C27.2288 34.1003 27.3644 34.9261 28.2324 34.9342C30.5234 34.9553 32.8152 34.9415 35.3585 34.9415L17.6596 0Z" fill="#424242"/>
<path d="M231.411 14.302L225.746 31.0206L220.054 14.302H218.147L212.371 30.9377L206.789 14.302H204.689L211.211 33.6458H213.339L219.031 17.1483L224.696 33.6458H226.852L233.373 14.302H231.411Z" fill="#424242"/>
<path d="M245.39 33.8116C251.193 33.8116 255.531 29.6389 255.531 23.9739C255.531 18.309 251.193 14.1362 245.39 14.1362C239.531 14.1362 235.22 18.3366 235.22 23.9739C235.22 29.6113 239.531 33.8116 245.39 33.8116ZM245.39 31.9878C240.72 31.9878 237.238 28.5888 237.238 23.9739C237.238 19.3591 240.72 15.9601 245.39 15.9601C250.032 15.9601 253.487 19.3591 253.487 23.9739C253.487 28.5888 250.032 31.9878 245.39 31.9878Z" fill="#424242"/>
<path d="M275.562 33.6458L270.837 27.0137C273.656 26.1017 275.258 23.9739 275.258 20.9342C275.258 16.7891 272.274 14.302 267.355 14.302L262.16 14.1362V33.6458V27.5111H267.355C267.908 27.5111 268.405 27.4834 268.903 27.4282L273.324 33.6458H275.562ZM267.3 25.7701H262.16V16.0706H267.3C271.169 16.0706 273.214 17.8392 273.214 20.9342C273.214 23.9739 271.169 25.7701 267.3 25.7701Z" fill="#424242"/>
<path d="M293.985 33.6458H296.417L287.463 23.062L295.836 14.302H293.487L282.13 25.9912V14.302H280.085V33.6458H282.13V28.5612L286.081 24.5542L293.985 33.6458Z" fill="#424242"/>
<path d="M299.508 33.7841C300.309 33.7841 301 33.1209 301 32.2642C301 31.4076 300.309 30.772 299.508 30.772C298.706 30.772 298.043 31.4076 298.043 32.2642C298.043 33.1209 298.706 33.7841 299.508 33.7841Z" fill="#424242"/>
<path d="M165.893 33.646H168.049L159.206 14.3022H157.189L148.346 33.646H150.474L152.795 28.4785H163.572L165.893 33.646ZM152.795 28.4785L158.183 16.4301L163.572 28.4785H152.795Z" fill="#424242"/>
<path d="M186.696 33.646L181.971 27.0139C184.789 26.102 186.392 23.9741 186.392 20.9344C186.392 16.7893 183.408 14.3022 178.489 14.3022H173.294V33.646V27.5113H178.489C179.041 27.5113 179.539 27.4837 180.036 27.4284L184.458 33.646H186.696ZM178.433 25.7704H173.294V16.0708H178.433C182.302 16.0708 184.347 17.8394 184.347 20.9344C184.347 23.9741 182.302 25.7704 178.433 25.7704Z" fill="#424242"/>
<path d="M194.707 33.646H196.752V16.0708H203.55V14.3022H187.909V16.0708H194.707V33.646Z" fill="#424242"/>
<path d="M46.4053 33.2515H52.236C58.4261 33.2515 62.5988 29.2722 62.5988 23.5796C62.5988 17.887 58.4261 13.9077 52.236 13.9077H46.4053L46.4053 33.2515ZM46.4053 31.4829V15.6763H52.1255C57.2654 15.6763 60.5815 18.9371 60.5815 23.5796C60.5815 28.2221 57.2654 31.4829 52.1255 31.4829H46.4053Z" fill="#424242"/>
<path d="M69.2357 31.4829V24.2981H79.2392V22.5572H69.2357V15.6763H80.4551V13.9077H67.1908V33.2515H80.8696V31.4829H69.2357Z" fill="#424242"/>
<path d="M101.124 33.2515L96.3984 26.6194C99.2171 25.7074 100.82 23.5796 100.82 20.5399C100.82 16.3948 97.8354 13.9077 92.9165 13.9077H87.7213V33.2515V27.1168H92.9165C93.4692 27.1168 93.9666 27.0891 94.464 27.0339L98.8854 33.2515H101.124ZM92.8612 25.3758H87.7213V15.6763H92.8612C96.73 15.6763 98.7749 17.4449 98.7749 20.5399C98.7749 23.5796 96.73 25.3758 92.8612 25.3758Z" fill="#424242"/>
<path d="M107.691 31.4829V24.2981H117.695V22.5572H107.691V15.6763H118.911V13.9077H105.646V33.2515H119.325V31.4829H107.691Z" fill="#424242"/>
<path d="M124.132 33.2515H137.009V31.4829H126.177V13.9077H124.132V33.2515Z" fill="#424242"/>
<path d="M245.008 13.9077H246.489V34.1397H245.008V13.9077Z" fill="white"/>
</svg>
