<svg width="201.33124999999998px" height="71.6px" xmlns="http://www.w3.org/2000/svg" viewBox="149.33437500000002 39.2 201.33124999999998 71.6" style="background: rgba(0, 0, 0, 0);" preserveAspectRatio="xMidYMid"><defs><filter id="editing-hole" x="-100%" y="-100%" width="300%" height="300%"><feFlood flood-color="#000000" result="black"></feFlood><feMorphology operator="dilate" radius="2" in="SourceGraphic" result="erode"></feMorphology><feGaussianBlur in="erode" stdDeviation="4" result="blur"></feGaussianBlur><feOffset in="blur" dx="2" dy="2" result="offset"></feOffset><feComposite operator="atop" in="offset" in2="black" result="merge"></feComposite><feComposite operator="in" in="merge" in2="SourceGraphic" result="inner-shadow"></feComposite></filter></defs><g filter="url(#editing-hole)"><g transform="translate(182.88500952720642, 87.56999969482422)"><path d="M8.26-11.03L15.12-19.26L22.79-19.26L15.88-11.34L22.93 0L15.62 0L11.62-7.06L8.26-4.31L8.26 0L2.07 0L2.07-19.26L8.26-19.26L8.26-11.03ZM32.31-15.12L32.31-15.12Q35.70-15.12 37.83-13.99L37.83-13.99L37.83-13.99Q39.96-12.85 39.96-10.30L39.96-10.30L39.96-4.54L39.96-4.54Q39.96-4.06 40.18-3.75L40.18-3.75L40.18-3.75Q40.40-3.44 40.85-3.44L40.85-3.44L41.86-3.44L41.86-0.22L41.86-0.22Q41.78-0.17 41.43-0.04L41.43-0.04L41.43-0.04Q41.08 0.08 40.43 0.21L40.43 0.21L40.43 0.21Q39.79 0.34 38.95 0.34L38.95 0.34L38.95 0.34Q37.32 0.34 36.27-0.15L36.27-0.15L36.27-0.15Q35.22-0.64 34.83-1.51L34.83-1.51L34.83-1.51Q33.77-0.67 32.45-0.17L32.45-0.17L32.45-0.17Q31.14 0.34 29.37 0.34L29.37 0.34L29.37 0.34Q24.16 0.34 24.16-3.81L24.16-3.81L24.16-3.81Q24.16-5.96 25.33-7.10L25.33-7.10L25.33-7.10Q26.49-8.23 28.67-8.65L28.67-8.65L28.67-8.65Q30.86-9.07 34.38-9.07L34.38-9.07L34.38-9.80L34.38-9.80Q34.38-10.67 33.78-11.12L33.78-11.12L33.78-11.12Q33.18-11.56 32.23-11.56L32.23-11.56L32.23-11.56Q31.36-11.56 30.73-11.26L30.73-11.26L30.73-11.26Q30.10-10.95 30.10-10.28L30.10-10.28L30.10-10.16L24.61-10.16L24.61-10.16Q24.58-10.30 24.58-10.56L24.58-10.56L24.58-10.56Q24.58-12.66 26.59-13.89L26.59-13.89L26.59-13.89Q28.59-15.12 32.31-15.12L32.31-15.12ZM34.38-6.44L34.38-6.44Q32.00-6.44 30.87-5.92L30.87-5.92L30.87-5.92Q29.74-5.40 29.74-4.54L29.74-4.54L29.74-4.54Q29.74-3.14 31.64-3.14L31.64-3.14L31.64-3.14Q32.73-3.14 33.56-3.72L33.56-3.72L33.56-3.72Q34.38-4.31 34.38-5.18L34.38-5.18L34.38-6.44ZM53.84-0.45L53.84-0.45Q52.70 2.66 51.03 4.27L51.03 4.27L51.03 4.27Q49.36 5.88 46.37 5.88L46.37 5.88L46.37 5.88Q44.55 5.88 43.15 5.38L43.15 5.38L43.15 2.04L45.39 2.04L45.39 2.04Q47.49 2.04 47.88 0L47.88 0L42-14.78L47.99-14.78L50.82-4.96L51.02-4.96L53.62-14.78L59.11-14.78L53.84-0.45ZM68.10-15.12L68.10-15.12Q71.48-15.12 73.61-13.99L73.61-13.99L73.61-13.99Q75.74-12.85 75.74-10.30L75.74-10.30L75.74-4.54L75.74-4.54Q75.74-4.06 75.96-3.75L75.96-3.75L75.96-3.75Q76.19-3.44 76.64-3.44L76.64-3.44L77.64-3.44L77.64-0.22L77.64-0.22Q77.56-0.17 77.21-0.04L77.21-0.04L77.21-0.04Q76.86 0.08 76.22 0.21L76.22 0.21L76.22 0.21Q75.57 0.34 74.73 0.34L74.73 0.34L74.73 0.34Q73.11 0.34 72.06-0.15L72.06-0.15L72.06-0.15Q71.01-0.64 70.62-1.51L70.62-1.51L70.62-1.51Q69.55-0.67 68.24-0.17L68.24-0.17L68.24-0.17Q66.92 0.34 65.16 0.34L65.16 0.34L65.16 0.34Q59.95 0.34 59.95-3.81L59.95-3.81L59.95-3.81Q59.95-5.96 61.11-7.10L61.11-7.10L61.11-7.10Q62.27-8.23 64.46-8.65L64.46-8.65L64.46-8.65Q66.64-9.07 70.17-9.07L70.17-9.07L70.17-9.80L70.17-9.80Q70.17-10.67 69.57-11.12L69.57-11.12L69.57-11.12Q68.96-11.56 68.01-11.56L68.01-11.56L68.01-11.56Q67.14-11.56 66.51-11.26L66.51-11.26L66.51-11.26Q65.88-10.95 65.88-10.28L65.88-10.28L65.88-10.16L60.40-10.16L60.40-10.16Q60.37-10.30 60.37-10.56L60.37-10.56L60.37-10.56Q60.37-12.66 62.37-13.89L62.37-13.89L62.37-13.89Q64.37-15.12 68.10-15.12L68.10-15.12ZM70.17-6.44L70.17-6.44Q67.79-6.44 66.65-5.92L66.65-5.92L66.65-5.92Q65.52-5.40 65.52-4.54L65.52-4.54L65.52-4.54Q65.52-3.14 67.42-3.14L67.42-3.14L67.42-3.14Q68.52-3.14 69.34-3.72L69.34-3.72L69.34-3.72Q70.17-4.31 70.17-5.18L70.17-5.18L70.17-6.44ZM87.11-15.12L87.11-15.12Q90.75-15.12 93.00-13.57L93.00-13.57L93.00-13.57Q95.26-12.01 95.26-8.82L95.26-8.82L89.85-8.82L89.85-8.82Q89.85-11.34 87.11-11.34L87.11-11.34L87.11-11.34Q84.36-11.34 84.36-8.18L84.36-8.18L84.36-6.58L84.36-6.58Q84.36-3.44 87.22-3.44L87.22-3.44L87.22-3.44Q90.08-3.44 90.08-6.02L90.08-6.02L95.26-6.02L95.26-6.02Q95.26-2.80 93.00-1.23L93.00-1.23L93.00-1.23Q90.75 0.34 87.11 0.34L87.11 0.34L87.11 0.34Q83.22 0.34 81.00-1.62L81.00-1.62L81.00-1.62Q78.79-3.58 78.79-7.39L78.79-7.39L78.79-7.39Q78.79-11.20 81.00-13.16L81.00-13.16L81.00-13.16Q83.22-15.12 87.11-15.12L87.11-15.12ZM105.45-15.12L105.45-15.12Q108.84-15.12 110.96-13.99L110.96-13.99L110.96-13.99Q113.09-12.85 113.09-10.30L113.09-10.30L113.09-4.54L113.09-4.54Q113.09-4.06 113.32-3.75L113.32-3.75L113.32-3.75Q113.54-3.44 113.99-3.44L113.99-3.44L115.00-3.44L115.00-0.22L115.00-0.22Q114.91-0.17 114.56-0.04L114.56-0.04L114.56-0.04Q114.21 0.08 113.57 0.21L113.57 0.21L113.57 0.21Q112.92 0.34 112.08 0.34L112.08 0.34L112.08 0.34Q110.46 0.34 109.41-0.15L109.41-0.15L109.41-0.15Q108.36-0.64 107.97-1.51L107.97-1.51L107.97-1.51Q106.90-0.67 105.59-0.17L105.59-0.17L105.59-0.17Q104.27 0.34 102.51 0.34L102.51 0.34L102.51 0.34Q97.30 0.34 97.30-3.81L97.30-3.81L97.30-3.81Q97.30-5.96 98.46-7.10L98.46-7.10L98.46-7.10Q99.62-8.23 101.81-8.65L101.81-8.65L101.81-8.65Q103.99-9.07 107.52-9.07L107.52-9.07L107.52-9.80L107.52-9.80Q107.52-10.67 106.92-11.12L106.92-11.12L106.92-11.12Q106.32-11.56 105.36-11.56L105.36-11.56L105.36-11.56Q104.50-11.56 103.87-11.26L103.87-11.26L103.87-11.26Q103.24-10.95 103.24-10.28L103.24-10.28L103.24-10.16L97.75-10.16L97.75-10.16Q97.72-10.30 97.72-10.56L97.72-10.56L97.72-10.56Q97.72-12.66 99.72-13.89L99.72-13.89L99.72-13.89Q101.72-15.12 105.45-15.12L105.45-15.12ZM107.52-6.44L107.52-6.44Q105.14-6.44 104.01-5.92L104.01-5.92L104.01-5.92Q102.87-5.40 102.87-4.54L102.87-4.54L102.87-4.54Q102.87-3.14 104.78-3.14L104.78-3.14L104.78-3.14Q105.87-3.14 106.69-3.72L106.69-3.72L106.69-3.72Q107.52-4.31 107.52-5.18L107.52-5.18L107.52-6.44ZM127.01-15.12L127.01-15.12Q129.58-15.12 130.87-13.69L130.87-13.69L130.87-13.69Q132.16-12.26 132.16-9.58L132.16-9.58L132.16 0L126.59 0L126.59-8.90L126.59-8.90Q126.59-9.86 126.10-10.43L126.10-10.43L126.10-10.43Q125.61-11.00 124.71-11.00L124.71-11.00L124.71-11.00Q123.68-11.00 123.03-10.33L123.03-10.33L123.03-10.33Q122.39-9.66 122.39-8.68L122.39-8.68L122.39 0L116.82 0L116.82-14.78L121.38-14.78L121.74-12.54L121.74-12.54Q122.61-13.72 124.03-14.42L124.03-14.42L124.03-14.42Q125.44-15.12 127.01-15.12L127.01-15.12Z" fill="#424242"></path></g></g><style>text {
  font-size: 64px;
  font-family: Arial Black;
  dominant-baseline: central;
  text-anchor: middle;
}</style></svg>